# xmcd
#
# Track frame offsets:
#       150
#       17858
#       33956
#       51203
#       70091
#       85560
#       104129
#       125104
#       142486
#
# Disc length: 2118 seconds
#
# Revision: 2
# Processed by: cddbd v1.5.2PL0 Copyright (c) Steve Scherf et al.
# Submitted via: FreeDbEdit v0.1
#
DISCID=84084409
DTITLE=The Temptations - House Party
DYEAR=1975
DGENRE=
TTITLE0=Keep Holding On
TTITLE1=It's Just a Matter of Time
TTITLE2=You Can't Stop a Man in Love
TTITLE3=World of You Love and Music
TTITLE4=What You Need Most (I Do Best of All)
TTITLE5=Ways of a Grown Up Man
TTITLE6=Johnny Porter
TTITLE7=Darling Stand by Me (Song for My Woman)
TTITLE8=If I Don't Love You This Way
EXTD=
EXTT0=
EXTT1=
EXTT2=
EXTT3=
EXTT4=
EXTT5=
EXTT6=
EXTT7=
EXTT8=
PLAYORDER=
